<svg xmlns="http://www.w3.org/2000/svg" xmlns:xlink="http://www.w3.org/1999/xlink" contentStyleType="text/css" data-diagram-type="DESCRIPTION" height="511px" preserveAspectRatio="none" style="width:2736px;height:511px;background:#FFFFFF;" version="1.1" viewBox="0 0 2736 511" width="2736px" zoomAndPan="magnify"><defs/><g><!--cluster DAFO - Divisi?n Automotive--><g id="cluster_DAFO - Divisi&#243;n Automotive"><rect fill="#FFFFFF" fill-opacity="0.00000" height="498.19" rx="2.5" ry="2.5" style="stroke:#181818;stroke-width:1;" width="2723" x="7" y="7"/><text fill="#000000" font-family="sans-serif" font-size="14" font-weight="bold" lengthAdjust="spacing" textLength="218.8457" x="1259.0771" y="21.9951">DAFO - Divisi&#243;n Automotive</text></g><!--cluster Fortalezas--><g id="cluster_Fortalezas"><path d="M206.5,50 L289.9482,50 A3.75,3.75 0 0 1 292.4482,52.5 L299.4482,72.2969 L1358.5,72.2969 A2.5,2.5 0 0 1 1361,74.7969 L1361,251.1 A2.5,2.5 0 0 1 1358.5,253.6 L206.5,253.6 A2.5,2.5 0 0 1 204,251.1 L204,52.5 A2.5,2.5 0 0 1 206.5,50 " fill="#FFFFFF" fill-opacity="0.00000" style="stroke:#000000;stroke-width:1.5;"/><line style="stroke:#000000;stroke-width:1.5;" x1="204" x2="299.4482" y1="72.2969" y2="72.2969"/><text fill="#000000" font-family="sans-serif" font-size="14" font-weight="bold" lengthAdjust="spacing" textLength="82.4482" x="208" y="64.9951">Fortalezas</text></g><!--cluster Debilidades--><g id="cluster_Debilidades"><path d="M1387.5,50 L1481.3525,50 A3.75,3.75 0 0 1 1483.8525,52.5 L1490.8525,72.2969 L2467.5,72.2969 A2.5,2.5 0 0 1 2470,74.7969 L2470,251.1 A2.5,2.5 0 0 1 2467.5,253.6 L1387.5,253.6 A2.5,2.5 0 0 1 1385,251.1 L1385,52.5 A2.5,2.5 0 0 1 1387.5,50 " fill="#FFFFFF" fill-opacity="0.00000" style="stroke:#000000;stroke-width:1.5;"/><line style="stroke:#000000;stroke-width:1.5;" x1="1385" x2="1490.8525" y1="72.2969" y2="72.2969"/><text fill="#000000" font-family="sans-serif" font-size="14" font-weight="bold" lengthAdjust="spacing" textLength="92.8525" x="1389" y="64.9951">Debilidades</text></g><!--cluster Oportunidades--><g id="cluster_Oportunidades"><path d="M33.5,277.6 L151.6885,277.6 A3.75,3.75 0 0 1 154.1885,280.1 L161.1885,299.8969 L1543.5,299.8969 A2.5,2.5 0 0 1 1546,302.3969 L1546,478.69 A2.5,2.5 0 0 1 1543.5,481.19 L33.5,481.19 A2.5,2.5 0 0 1 31,478.69 L31,280.1 A2.5,2.5 0 0 1 33.5,277.6 " fill="#FFFFFF" fill-opacity="0.00000" style="stroke:#000000;stroke-width:1.5;"/><line style="stroke:#000000;stroke-width:1.5;" x1="31" x2="161.1885" y1="299.8969" y2="299.8969"/><text fill="#000000" font-family="sans-serif" font-size="14" font-weight="bold" lengthAdjust="spacing" textLength="117.1885" x="35" y="292.5951">Oportunidades</text></g><!--cluster Amenazas--><g id="cluster_Amenazas"><path d="M1572.5,277.6 L1653.7607,277.6 A3.75,3.75 0 0 1 1656.2607,280.1 L1663.2607,299.8969 L2703.5,299.8969 A2.5,2.5 0 0 1 2706,302.3969 L2706,478.69 A2.5,2.5 0 0 1 2703.5,481.19 L1572.5,481.19 A2.5,2.5 0 0 1 1570,478.69 L1570,280.1 A2.5,2.5 0 0 1 1572.5,277.6 " fill="#FFFFFF" fill-opacity="0.00000" style="stroke:#000000;stroke-width:1.5;"/><line style="stroke:#000000;stroke-width:1.5;" x1="1570" x2="1663.2607" y1="299.8969" y2="299.8969"/><text fill="#000000" font-family="sans-serif" font-size="14" font-weight="bold" lengthAdjust="spacing" textLength="80.2607" x="1574" y="292.5951">Amenazas</text></g><!--entity Experiencia en fabricaci?n de tubos y componentes de aluminio--><g id="elem_Experiencia en fabricaci&#243;n de tubos y componentes de aluminio"><rect fill="#F1F1F1" height="46.2969" rx="2.5" ry="2.5" style="stroke:#181818;stroke-width:0.5;" width="490.0576" x="219.97" y="85"/><rect fill="#F1F1F1" height="10" style="stroke:#181818;stroke-width:0.5;" width="15" x="690.0276" y="90"/><rect fill="#F1F1F1" height="2" style="stroke:#181818;stroke-width:0.5;" width="4" x="688.0276" y="92"/><rect fill="#F1F1F1" height="2" style="stroke:#181818;stroke-width:0.5;" width="4" x="688.0276" y="96"/><text fill="#000000" font-family="sans-serif" font-size="14" lengthAdjust="spacing" textLength="450.0576" x="234.97" y="117.9951">Experiencia en fabricaci&#243;n de tubos y componentes de aluminio</text></g><!--entity Certificaci?n de calidad IATF 16949, lo que fortalece la confianza de los clientes--><g id="elem_Certificaci&#243;n de calidad IATF 16949, lo que fortalece la confianza de los clientes"><rect fill="#F1F1F1" height="46.2969" rx="2.5" ry="2.5" style="stroke:#181818;stroke-width:0.5;" width="600.6221" x="744.69" y="85"/><rect fill="#F1F1F1" height="10" style="stroke:#181818;stroke-width:0.5;" width="15" x="1325.3121" y="90"/><rect fill="#F1F1F1" height="2" style="stroke:#181818;stroke-width:0.5;" width="4" x="1323.3121" y="92"/><rect fill="#F1F1F1" height="2" style="stroke:#181818;stroke-width:0.5;" width="4" x="1323.3121" y="96"/><text fill="#000000" font-family="sans-serif" font-size="14" lengthAdjust="spacing" textLength="560.6221" x="759.69" y="117.9951">Certificaci&#243;n de calidad IATF 16949, lo que fortalece la confianza de los clientes</text></g><!--entity Producci?n Just-In-Time (JIT), optimizando costos y eficiencia--><g id="elem_Producci&#243;n Just-In-Time (JIT), optimizando costos y eficiencia"><rect fill="#F1F1F1" height="46.2969" rx="2.5" ry="2.5" style="stroke:#181818;stroke-width:0.5;" width="466.1865" x="231.91" y="191.3"/><rect fill="#F1F1F1" height="10" style="stroke:#181818;stroke-width:0.5;" width="15" x="678.0965" y="196.3"/><rect fill="#F1F1F1" height="2" style="stroke:#181818;stroke-width:0.5;" width="4" x="676.0965" y="198.3"/><rect fill="#F1F1F1" height="2" style="stroke:#181818;stroke-width:0.5;" width="4" x="676.0965" y="202.3"/><text fill="#000000" font-family="sans-serif" font-size="14" lengthAdjust="spacing" textLength="426.1865" x="246.91" y="224.2951">Producci&#243;n Just-In-Time (JIT), optimizando costos y eficiencia</text></g><!--entity Dependencia de la industria automotriz, que es c?clica y susceptible a crisis econ?micas--><g id="elem_Dependencia de la industria automotriz, que es c&#237;clica y susceptible a crisis econ&#243;micas"><rect fill="#F1F1F1" height="46.2969" rx="2.5" ry="2.5" style="stroke:#181818;stroke-width:0.5;" width="658.9941" x="1400.5" y="85"/><rect fill="#F1F1F1" height="10" style="stroke:#181818;stroke-width:0.5;" width="15" x="2039.4941" y="90"/><rect fill="#F1F1F1" height="2" style="stroke:#181818;stroke-width:0.5;" width="4" x="2037.4941" y="92"/><rect fill="#F1F1F1" height="2" style="stroke:#181818;stroke-width:0.5;" width="4" x="2037.4941" y="96"/><text fill="#000000" font-family="sans-serif" font-size="14" lengthAdjust="spacing" textLength="618.9941" x="1415.5" y="117.9951">Dependencia de la industria automotriz, que es c&#237;clica y susceptible a crisis econ&#243;micas</text></g><!--entity Altos costos de producci?n y materias primas--><g id="elem_Altos costos de producci&#243;n y materias primas"><rect fill="#F1F1F1" height="46.2969" rx="2.5" ry="2.5" style="stroke:#181818;stroke-width:0.5;" width="359.7783" x="2094.11" y="85"/><rect fill="#F1F1F1" height="10" style="stroke:#181818;stroke-width:0.5;" width="15" x="2433.8883" y="90"/><rect fill="#F1F1F1" height="2" style="stroke:#181818;stroke-width:0.5;" width="4" x="2431.8883" y="92"/><rect fill="#F1F1F1" height="2" style="stroke:#181818;stroke-width:0.5;" width="4" x="2431.8883" y="96"/><text fill="#000000" font-family="sans-serif" font-size="14" lengthAdjust="spacing" textLength="319.7783" x="2109.11" y="117.9951">Altos costos de producci&#243;n y materias primas</text></g><!--entity Necesidad de constante actualizaci?n tecnol?gica para mantenerse competitivo--><g id="elem_Necesidad de constante actualizaci&#243;n tecnol&#243;gica para mantenerse competitivo"><rect fill="#F1F1F1" height="46.2969" rx="2.5" ry="2.5" style="stroke:#181818;stroke-width:0.5;" width="602.9053" x="1428.55" y="191.3"/><rect fill="#F1F1F1" height="10" style="stroke:#181818;stroke-width:0.5;" width="15" x="2011.4553" y="196.3"/><rect fill="#F1F1F1" height="2" style="stroke:#181818;stroke-width:0.5;" width="4" x="2009.4553" y="198.3"/><rect fill="#F1F1F1" height="2" style="stroke:#181818;stroke-width:0.5;" width="4" x="2009.4553" y="202.3"/><text fill="#000000" font-family="sans-serif" font-size="14" lengthAdjust="spacing" textLength="562.9053" x="1443.55" y="224.2951">Necesidad de constante actualizaci&#243;n tecnol&#243;gica para mantenerse competitivo</text></g><!--entity  Crecimiento del mercado de veh?culos el?ctricos e h?bridos, que demanda nuevos componentes de refrigeraci?n--><g id="elem_ Crecimiento del mercado de veh&#237;culos el&#233;ctricos e h&#237;bridos, que demanda nuevos componentes de refrigeraci&#243;n"><rect fill="#F1F1F1" height="46.2969" rx="2.5" ry="2.5" style="stroke:#181818;stroke-width:0.5;" width="835.6621" x="47.17" y="312.6"/><rect fill="#F1F1F1" height="10" style="stroke:#181818;stroke-width:0.5;" width="15" x="862.8321" y="317.6"/><rect fill="#F1F1F1" height="2" style="stroke:#181818;stroke-width:0.5;" width="4" x="860.8321" y="319.6"/><rect fill="#F1F1F1" height="2" style="stroke:#181818;stroke-width:0.5;" width="4" x="860.8321" y="323.6"/><text fill="#000000" font-family="sans-serif" font-size="14" lengthAdjust="spacing" textLength="791.2119" x="66.6202" y="345.5951">Crecimiento del mercado de veh&#237;culos el&#233;ctricos e h&#237;bridos, que demanda nuevos componentes de refrigeraci&#243;n</text></g><!--entity Expansi?n a nuevos mercados internacionales con requisitos similares de calidad--><g id="elem_Expansi&#243;n a nuevos mercados internacionales con requisitos similares de calidad"><rect fill="#F1F1F1" height="46.2969" rx="2.5" ry="2.5" style="stroke:#181818;stroke-width:0.5;" width="612.168" x="917.92" y="312.6"/><rect fill="#F1F1F1" height="10" style="stroke:#181818;stroke-width:0.5;" width="15" x="1510.088" y="317.6"/><rect fill="#F1F1F1" height="2" style="stroke:#181818;stroke-width:0.5;" width="4" x="1508.088" y="319.6"/><rect fill="#F1F1F1" height="2" style="stroke:#181818;stroke-width:0.5;" width="4" x="1508.088" y="323.6"/><text fill="#000000" font-family="sans-serif" font-size="14" lengthAdjust="spacing" textLength="572.168" x="932.92" y="345.5951">Expansi&#243;n a nuevos mercados internacionales con requisitos similares de calidad</text></g><!--entity Desarrollo de tecnolog?as m?s eficientes en fabricaci?n y ensamblaje--><g id="elem_Desarrollo de tecnolog&#237;as m&#225;s eficientes en fabricaci&#243;n y ensamblaje"><rect fill="#F1F1F1" height="46.2969" rx="2.5" ry="2.5" style="stroke:#181818;stroke-width:0.5;" width="526.5137" x="201.74" y="418.89"/><rect fill="#F1F1F1" height="10" style="stroke:#181818;stroke-width:0.5;" width="15" x="708.2537" y="423.89"/><rect fill="#F1F1F1" height="2" style="stroke:#181818;stroke-width:0.5;" width="4" x="706.2537" y="425.89"/><rect fill="#F1F1F1" height="2" style="stroke:#181818;stroke-width:0.5;" width="4" x="706.2537" y="429.89"/><text fill="#000000" font-family="sans-serif" font-size="14" lengthAdjust="spacing" textLength="486.5137" x="216.74" y="451.8851">Desarrollo de tecnolog&#237;as m&#225;s eficientes en fabricaci&#243;n y ensamblaje</text></g><!--entity  Competencia fuerte de fabricantes en pa?ses con costos m?s bajos--><g id="elem_ Competencia fuerte de fabricantes en pa&#237;ses con costos m&#225;s bajos"><rect fill="#F1F1F1" height="46.2969" rx="2.5" ry="2.5" style="stroke:#181818;stroke-width:0.5;" width="514.291" x="1585.85" y="312.6"/><rect fill="#F1F1F1" height="10" style="stroke:#181818;stroke-width:0.5;" width="15" x="2080.141" y="317.6"/><rect fill="#F1F1F1" height="2" style="stroke:#181818;stroke-width:0.5;" width="4" x="2078.141" y="319.6"/><rect fill="#F1F1F1" height="2" style="stroke:#181818;stroke-width:0.5;" width="4" x="2078.141" y="323.6"/><text fill="#000000" font-family="sans-serif" font-size="14" lengthAdjust="spacing" textLength="469.8408" x="1605.3002" y="345.5951">Competencia fuerte de fabricantes en pa&#237;ses con costos m&#225;s bajos</text></g><!--entity  Regulaciones ambientales m?s estrictas que pueden incrementar costos--><g id="elem_ Regulaciones ambientales m&#225;s estrictas que pueden incrementar costos"><rect fill="#F1F1F1" height="46.2969" rx="2.5" ry="2.5" style="stroke:#181818;stroke-width:0.5;" width="554.8623" x="2135.57" y="312.6"/><rect fill="#F1F1F1" height="10" style="stroke:#181818;stroke-width:0.5;" width="15" x="2670.4323" y="317.6"/><rect fill="#F1F1F1" height="2" style="stroke:#181818;stroke-width:0.5;" width="4" x="2668.4323" y="319.6"/><rect fill="#F1F1F1" height="2" style="stroke:#181818;stroke-width:0.5;" width="4" x="2668.4323" y="323.6"/><text fill="#000000" font-family="sans-serif" font-size="14" lengthAdjust="spacing" textLength="510.4121" x="2155.0202" y="345.5951">Regulaciones ambientales m&#225;s estrictas que pueden incrementar costos</text></g><!--entity Disrupciones en la cadena de suministro global que afectan la producci?n JIT--><g id="elem_Disrupciones en la cadena de suministro global que afectan la producci&#243;n JIT"><rect fill="#F1F1F1" height="46.2969" rx="2.5" ry="2.5" style="stroke:#181818;stroke-width:0.5;" width="580.4082" x="1585.8" y="418.89"/><rect fill="#F1F1F1" height="10" style="stroke:#181818;stroke-width:0.5;" width="15" x="2146.2082" y="423.89"/><rect fill="#F1F1F1" height="2" style="stroke:#181818;stroke-width:0.5;" width="4" x="2144.2082" y="425.89"/><rect fill="#F1F1F1" height="2" style="stroke:#181818;stroke-width:0.5;" width="4" x="2144.2082" y="429.89"/><text fill="#000000" font-family="sans-serif" font-size="14" lengthAdjust="spacing" textLength="540.4082" x="1600.8" y="451.8851">Disrupciones en la cadena de suministro global que afectan la producci&#243;n JIT</text></g><!--SRC=[TLIxRjmm4Epp5GjN2M0N0O80BW- -760NSH2u2roig9LCXo9bFWxn1VwOb2bS-HFqOncIEbjdE2eE4cyvEpipf1SLsVP6w6YzsbpI2QtrLWSzFLbQfUW65_LMZkZtEy8pilh9FMetpaSsikEm_oi_Fxxy6iLhiKepYQME6wyLguBM2iNKk43tfDmmEYisIiZBRDAWhNRNBq1dugFkbdiL6zroI-Uhgmrz_7pwwVIOZAEx9DHLCah8CB1jfzdkE6yoQAUCBfqMwD-yQvEgq1Sfn9DpUtAb1w7t5-TN7ux9ZL4FUiUsTS0BiP0MqAcZLQJoy_3o-gpDMXfTkCgXE6iPnRPLdBPmrRP5Tuzlhb9xlJik8q4ODJs2kcAq3Yae0QS6Dc523ty22IQTdWPKB4TRcSns9eqkusBKUneumXyEMDR3mRwla2yKWRFMpWQa8gARYWd2xsOVeYZhpFJKPruZUmOYogpu8CLLYHfvcPryIvpB4MOb-uOyTEP5GNQOvK32q21USPlVQIitK2DbEyLCVnM4KlcTi8o8jIvKsLe1dvR99jaM6GvovgNpkXTVXxa-Y2tRclddlNFt09EWcSKUPn6o36g1T9TWGjOuWB9XNplC8RrUcXxOUsTCcQFgv_hf4HuCqv-mJrLc-Fh0878syD0OlfN_2xeQnFBhSqXdnOkQjIxXC6Ljzl3xRYDFZs6UQ4vCuTJmhLjcWxvBdqnH0DLWb0aNBUe8ESAuHKAnO4o2Z4CrvMN8TNx6NegYWq_ZZ8VYV6oH1rlEHIYN0J0TzSOrR0eiT-MYogNBIEEyxgLv-0S0]--></g></svg>