<svg xmlns="http://www.w3.org/2000/svg" xmlns:xlink="http://www.w3.org/1999/xlink" contentStyleType="text/css" data-diagram-type="DESCRIPTION" height="511px" preserveAspectRatio="none" style="width:3561px;height:511px;background:#FFFFFF;" version="1.1" viewBox="0 0 3561 511" width="3561px" zoomAndPan="magnify"><defs/><g><!--cluster DAFO - Divisi?n MAflow3D--><g id="cluster_DAFO - Divisi&#243;n MAflow3D"><rect fill="#FFFFFF" fill-opacity="0.00000" height="498.19" rx="2.5" ry="2.5" style="stroke:#181818;stroke-width:1;" width="3548" x="7" y="7"/><text fill="#000000" font-family="sans-serif" font-size="14" font-weight="bold" lengthAdjust="spacing" textLength="206.9854" x="1677.5073" y="21.9951">DAFO - Divisi&#243;n MAflow3D</text></g><!--cluster Fortalezas--><g id="cluster_Fortalezas"><path d="M33.5,50 L116.9482,50 A3.75,3.75 0 0 1 119.4482,52.5 L126.4482,72.2969 L1162.5,72.2969 A2.5,2.5 0 0 1 1165,74.7969 L1165,144.8 A2.5,2.5 0 0 1 1162.5,147.3 L33.5,147.3 A2.5,2.5 0 0 1 31,144.8 L31,52.5 A2.5,2.5 0 0 1 33.5,50 " fill="#FFFFFF" fill-opacity="0.00000" style="stroke:#000000;stroke-width:1.5;"/><line style="stroke:#000000;stroke-width:1.5;" x1="31" x2="126.4482" y1="72.2969" y2="72.2969"/><text fill="#000000" font-family="sans-serif" font-size="14" font-weight="bold" lengthAdjust="spacing" textLength="82.4482" x="35" y="64.9951">Fortalezas</text></g><!--cluster Debilidades--><g id="cluster_Debilidades"><path d="M1191.5,50 L1285.3525,50 A3.75,3.75 0 0 1 1287.8525,52.5 L1294.8525,72.2969 L2205.5,72.2969 A2.5,2.5 0 0 1 2208,74.7969 L2208,251.1 A2.5,2.5 0 0 1 2205.5,253.6 L1191.5,253.6 A2.5,2.5 0 0 1 1189,251.1 L1189,52.5 A2.5,2.5 0 0 1 1191.5,50 " fill="#FFFFFF" fill-opacity="0.00000" style="stroke:#000000;stroke-width:1.5;"/><line style="stroke:#000000;stroke-width:1.5;" x1="1189" x2="1294.8525" y1="72.2969" y2="72.2969"/><text fill="#000000" font-family="sans-serif" font-size="14" font-weight="bold" lengthAdjust="spacing" textLength="92.8525" x="1193" y="64.9951">Debilidades</text></g><!--cluster Oportunidades--><g id="cluster_Oportunidades"><path d="M2234.5,50 L2352.6885,50 A3.75,3.75 0 0 1 2355.1885,52.5 L2362.1885,72.2969 L3528.5,72.2969 A2.5,2.5 0 0 1 3531,74.7969 L3531,251.1 A2.5,2.5 0 0 1 3528.5,253.6 L2234.5,253.6 A2.5,2.5 0 0 1 2232,251.1 L2232,52.5 A2.5,2.5 0 0 1 2234.5,50 " fill="#FFFFFF" fill-opacity="0.00000" style="stroke:#000000;stroke-width:1.5;"/><line style="stroke:#000000;stroke-width:1.5;" x1="2232" x2="2362.1885" y1="72.2969" y2="72.2969"/><text fill="#000000" font-family="sans-serif" font-size="14" font-weight="bold" lengthAdjust="spacing" textLength="117.1885" x="2236" y="64.9951">Oportunidades</text></g><!--cluster Amenazas--><g id="cluster_Amenazas"><path d="M1170.5,277.6 L1251.7607,277.6 A3.75,3.75 0 0 1 1254.2607,280.1 L1261.2607,299.8969 L2375.5,299.8969 A2.5,2.5 0 0 1 2378,302.3969 L2378,478.69 A2.5,2.5 0 0 1 2375.5,481.19 L1170.5,481.19 A2.5,2.5 0 0 1 1168,478.69 L1168,280.1 A2.5,2.5 0 0 1 1170.5,277.6 " fill="#FFFFFF" fill-opacity="0.00000" style="stroke:#000000;stroke-width:1.5;"/><line style="stroke:#000000;stroke-width:1.5;" x1="1168" x2="1261.2607" y1="299.8969" y2="299.8969"/><text fill="#000000" font-family="sans-serif" font-size="14" font-weight="bold" lengthAdjust="spacing" textLength="80.2607" x="1172" y="292.5951">Amenazas</text></g><!--entity Tecnolog?a avanzada en impresi?n 3D industrial y fabricaci?n r?pida--><g id="elem_Tecnolog&#237;a avanzada en impresi&#243;n 3D industrial y fabricaci&#243;n r&#225;pida"><rect fill="#F1F1F1" height="46.2969" rx="2.5" ry="2.5" style="stroke:#181818;stroke-width:0.5;" width="521.626" x="47.19" y="85"/><rect fill="#F1F1F1" height="10" style="stroke:#181818;stroke-width:0.5;" width="15" x="548.816" y="90"/><rect fill="#F1F1F1" height="2" style="stroke:#181818;stroke-width:0.5;" width="4" x="546.816" y="92"/><rect fill="#F1F1F1" height="2" style="stroke:#181818;stroke-width:0.5;" width="4" x="546.816" y="96"/><text fill="#000000" font-family="sans-serif" font-size="14" lengthAdjust="spacing" textLength="481.626" x="62.19" y="117.9951">Tecnolog&#237;a avanzada en impresi&#243;n 3D industrial y fabricaci&#243;n r&#225;pida</text></g><!--entity Capacidad de producir series cortas y prototipos, ofreciendo flexibilidad--><g id="elem_Capacidad de producir series cortas y prototipos, ofreciendo flexibilidad"><rect fill="#F1F1F1" height="46.2969" rx="2.5" ry="2.5" style="stroke:#181818;stroke-width:0.5;" width="545.0391" x="603.48" y="85"/><rect fill="#F1F1F1" height="10" style="stroke:#181818;stroke-width:0.5;" width="15" x="1128.5191" y="90"/><rect fill="#F1F1F1" height="2" style="stroke:#181818;stroke-width:0.5;" width="4" x="1126.5191" y="92"/><rect fill="#F1F1F1" height="2" style="stroke:#181818;stroke-width:0.5;" width="4" x="1126.5191" y="96"/><text fill="#000000" font-family="sans-serif" font-size="14" lengthAdjust="spacing" textLength="505.0391" x="618.48" y="117.9951">Capacidad de producir series cortas y prototipos, ofreciendo flexibilidad</text></g><!--entity Costos iniciales elevados en tecnolog?a y materiales especializados--><g id="elem_Costos iniciales elevados en tecnolog&#237;a y materiales especializados"><rect fill="#F1F1F1" height="46.2969" rx="2.5" ry="2.5" style="stroke:#181818;stroke-width:0.5;" width="512.6641" x="1204.67" y="85"/><rect fill="#F1F1F1" height="10" style="stroke:#181818;stroke-width:0.5;" width="15" x="1697.3341" y="90"/><rect fill="#F1F1F1" height="2" style="stroke:#181818;stroke-width:0.5;" width="4" x="1695.3341" y="92"/><rect fill="#F1F1F1" height="2" style="stroke:#181818;stroke-width:0.5;" width="4" x="1695.3341" y="96"/><text fill="#000000" font-family="sans-serif" font-size="14" lengthAdjust="spacing" textLength="472.6641" x="1219.67" y="117.9951">Costos iniciales elevados en tecnolog&#237;a y materiales especializados</text></g><!--entity Dependencia de un nicho de clientes a?n en crecimiento--><g id="elem_Dependencia de un nicho de clientes a&#250;n en crecimiento"><rect fill="#F1F1F1" height="46.2969" rx="2.5" ry="2.5" style="stroke:#181818;stroke-width:0.5;" width="439.4443" x="1752.28" y="85"/><rect fill="#F1F1F1" height="10" style="stroke:#181818;stroke-width:0.5;" width="15" x="2171.7243" y="90"/><rect fill="#F1F1F1" height="2" style="stroke:#181818;stroke-width:0.5;" width="4" x="2169.7243" y="92"/><rect fill="#F1F1F1" height="2" style="stroke:#181818;stroke-width:0.5;" width="4" x="2169.7243" y="96"/><text fill="#000000" font-family="sans-serif" font-size="14" lengthAdjust="spacing" textLength="399.4443" x="1767.28" y="117.9951">Dependencia de un nicho de clientes a&#250;n en crecimiento</text></g><!--entity Necesidad de capacitaci?n constante en nuevas tecnolog?as y software--><g id="elem_Necesidad de capacitaci&#243;n constante en nuevas tecnolog&#237;as y software"><rect fill="#F1F1F1" height="46.2969" rx="2.5" ry="2.5" style="stroke:#181818;stroke-width:0.5;" width="541.2383" x="1205.38" y="191.3"/><rect fill="#F1F1F1" height="10" style="stroke:#181818;stroke-width:0.5;" width="15" x="1726.6183" y="196.3"/><rect fill="#F1F1F1" height="2" style="stroke:#181818;stroke-width:0.5;" width="4" x="1724.6183" y="198.3"/><rect fill="#F1F1F1" height="2" style="stroke:#181818;stroke-width:0.5;" width="4" x="1724.6183" y="202.3"/><text fill="#000000" font-family="sans-serif" font-size="14" lengthAdjust="spacing" textLength="501.2383" x="1220.38" y="224.2951">Necesidad de capacitaci&#243;n constante en nuevas tecnolog&#237;as y software</text></g><!--entity Crecimiento del mercado de manufactura aditiva e impresi?n 3D en m?ltiples industrias--><g id="elem_Crecimiento del mercado de manufactura aditiva e impresi&#243;n 3D en m&#250;ltiples industrias"><rect fill="#F1F1F1" height="46.2969" rx="2.5" ry="2.5" style="stroke:#181818;stroke-width:0.5;" width="660.3203" x="2247.84" y="85"/><rect fill="#F1F1F1" height="10" style="stroke:#181818;stroke-width:0.5;" width="15" x="2888.1603" y="90"/><rect fill="#F1F1F1" height="2" style="stroke:#181818;stroke-width:0.5;" width="4" x="2886.1603" y="92"/><rect fill="#F1F1F1" height="2" style="stroke:#181818;stroke-width:0.5;" width="4" x="2886.1603" y="96"/><text fill="#000000" font-family="sans-serif" font-size="14" lengthAdjust="spacing" textLength="620.3203" x="2262.84" y="117.9951">Crecimiento del mercado de manufactura aditiva e impresi&#243;n 3D en m&#250;ltiples industrias</text></g><!--entity Potencial para la optimizaci?n de dise?o mediante topolog?a computacional--><g id="elem_Potencial para la optimizaci&#243;n de dise&#241;o mediante topolog&#237;a computacional"><rect fill="#F1F1F1" height="46.2969" rx="2.5" ry="2.5" style="stroke:#181818;stroke-width:0.5;" width="571.9658" x="2943.02" y="85"/><rect fill="#F1F1F1" height="10" style="stroke:#181818;stroke-width:0.5;" width="15" x="3494.9858" y="90"/><rect fill="#F1F1F1" height="2" style="stroke:#181818;stroke-width:0.5;" width="4" x="3492.9858" y="92"/><rect fill="#F1F1F1" height="2" style="stroke:#181818;stroke-width:0.5;" width="4" x="3492.9858" y="96"/><text fill="#000000" font-family="sans-serif" font-size="14" lengthAdjust="spacing" textLength="531.9658" x="2958.02" y="117.9951">Potencial para la optimizaci&#243;n de dise&#241;o mediante topolog&#237;a computacional</text></g><!--entity Expansi?n a nuevos sectores como aeroespacial, m?dico y energ?as renovables--><g id="elem_Expansi&#243;n a nuevos sectores como aeroespacial, m&#233;dico y energ&#237;as renovables"><rect fill="#F1F1F1" height="46.2969" rx="2.5" ry="2.5" style="stroke:#181818;stroke-width:0.5;" width="599.8428" x="2278.08" y="191.3"/><rect fill="#F1F1F1" height="10" style="stroke:#181818;stroke-width:0.5;" width="15" x="2857.9228" y="196.3"/><rect fill="#F1F1F1" height="2" style="stroke:#181818;stroke-width:0.5;" width="4" x="2855.9228" y="198.3"/><rect fill="#F1F1F1" height="2" style="stroke:#181818;stroke-width:0.5;" width="4" x="2855.9228" y="202.3"/><text fill="#000000" font-family="sans-serif" font-size="14" lengthAdjust="spacing" textLength="559.8428" x="2293.08" y="224.2951">Expansi&#243;n a nuevos sectores como aeroespacial, m&#233;dico y energ&#237;as renovables</text></g><!--entity Potencial de innovaci?n en materiales avanzados (I+D)--><g id="elem_Potencial de innovaci&#243;n en materiales avanzados (I+D)"><rect fill="#F1F1F1" height="46.2969" rx="2.5" ry="2.5" style="stroke:#181818;stroke-width:0.5;" width="428.7119" x="2912.64" y="191.3"/><rect fill="#F1F1F1" height="10" style="stroke:#181818;stroke-width:0.5;" width="15" x="3321.3519" y="196.3"/><rect fill="#F1F1F1" height="2" style="stroke:#181818;stroke-width:0.5;" width="4" x="3319.3519" y="198.3"/><rect fill="#F1F1F1" height="2" style="stroke:#181818;stroke-width:0.5;" width="4" x="3319.3519" y="202.3"/><text fill="#000000" font-family="sans-serif" font-size="14" lengthAdjust="spacing" textLength="388.7119" x="2927.64" y="224.2951">Potencial de innovaci&#243;n en materiales avanzados (I+D)</text></g><!--entity Evoluci?n r?pida de la tecnolog?a que puede hacer obsoletos ciertos equipos --><g id="elem_Evoluci&#243;n r&#225;pida de la tecnolog&#237;a que puede hacer obsoletos ciertos equipos "><rect fill="#F1F1F1" height="46.2969" rx="2.5" ry="2.5" style="stroke:#181818;stroke-width:0.5;" width="583.2725" x="1184.36" y="312.6"/><rect fill="#F1F1F1" height="10" style="stroke:#181818;stroke-width:0.5;" width="15" x="1747.6325" y="317.6"/><rect fill="#F1F1F1" height="2" style="stroke:#181818;stroke-width:0.5;" width="4" x="1745.6325" y="319.6"/><rect fill="#F1F1F1" height="2" style="stroke:#181818;stroke-width:0.5;" width="4" x="1745.6325" y="323.6"/><text fill="#000000" font-family="sans-serif" font-size="14" lengthAdjust="spacing" textLength="538.8223" x="1199.36" y="345.5951">Evoluci&#243;n r&#225;pida de la tecnolog&#237;a que puede hacer obsoletos ciertos equipos</text></g><!--entity Competencia con grandes empresas tecnol?gicas y startups innovadoras --><g id="elem_Competencia con grandes empresas tecnol&#243;gicas y startups innovadoras "><rect fill="#F1F1F1" height="46.2969" rx="2.5" ry="2.5" style="stroke:#181818;stroke-width:0.5;" width="559.0527" x="1802.47" y="312.6"/><rect fill="#F1F1F1" height="10" style="stroke:#181818;stroke-width:0.5;" width="15" x="2341.5227" y="317.6"/><rect fill="#F1F1F1" height="2" style="stroke:#181818;stroke-width:0.5;" width="4" x="2339.5227" y="319.6"/><rect fill="#F1F1F1" height="2" style="stroke:#181818;stroke-width:0.5;" width="4" x="2339.5227" y="323.6"/><text fill="#000000" font-family="sans-serif" font-size="14" lengthAdjust="spacing" textLength="514.6025" x="1817.47" y="345.5951">Competencia con grandes empresas tecnol&#243;gicas y startups innovadoras</text></g><!--entity Regulaciones sobre materiales de impresi?n 3D que pueden afectar su uso en algunas industrias --><g id="elem_Regulaciones sobre materiales de impresi&#243;n 3D que pueden afectar su uso en algunas industrias "><rect fill="#F1F1F1" height="46.2969" rx="2.5" ry="2.5" style="stroke:#181818;stroke-width:0.5;" width="726.7998" x="1183.6" y="418.89"/><rect fill="#F1F1F1" height="10" style="stroke:#181818;stroke-width:0.5;" width="15" x="1890.3998" y="423.89"/><rect fill="#F1F1F1" height="2" style="stroke:#181818;stroke-width:0.5;" width="4" x="1888.3998" y="425.89"/><rect fill="#F1F1F1" height="2" style="stroke:#181818;stroke-width:0.5;" width="4" x="1888.3998" y="429.89"/><text fill="#000000" font-family="sans-serif" font-size="14" lengthAdjust="spacing" textLength="682.3496" x="1198.6" y="451.8851">Regulaciones sobre materiales de impresi&#243;n 3D que pueden afectar su uso en algunas industrias</text></g><!--SRC=[TLGzRzj03DtpAuXCBPfE-GL6b00TsXH5jo83VKSfXvwEb_jm4XVvCHqxT2YoPTKVAodBjcma6cpXo2FVUtnK8bCmT9xWj5bSNSD7QDpAPJSy1_YyQ3tVdpUdyEi4v8beVc8dcLUS2dfQOzw6zFdndKnWpztm5m5N6DPe4IY0wsEYJSdp1bomDPVaqCCZjBXCpg0PWsdu7Pt5ctt52vIUScJ14iJ4jXgN85DobC4eYYn5952ukCZv3BXDP1m5oz1wUd1Bv_N-jkR9xkTf_xhZrT2KJeV4BZWNpeBS6O4jhSdJ2gqS2RioO_q8FHPAKrAEfFbkhQapLWr50KX1Wigh1f32jwplnWls8fTnU0bQtIYTNWzvLk4B6H5qqiMC8fL9HCCXoqGBwUrG1MUUGrIzChVb7XFTl2d4THHjQtXDYZqUwUsXfsI4dkBeCTGMJQb9nczTSIkP_j7m1LC_l7WPbYgqiy9SdQzSHccym95A7e5ZaPRhYQ1qiYxJy8-bkNKZrS9nEmB3VQmg1WVqixAN3n731WUEkiZqifYVqsYbdW4fiSmCjVUPmFnZdM6HYmAbZNI90gzmAT1VnIl8ND2C3L3bkdV3j13IzTsd3ytxjxLVz1JmUBKkL-phmPPeDz5cxhwxAajIIGAtQ2W1BpDxKkVAHYJzfxkgQmBp5HEzQCD0lGDTGl6cf8vpsvbdUEvaJqVt51Hln3nnjPpmeE0twgeVzPSgcPU9vZBOOqViGCjSMlqOoNvNg9bLF_HT3JWt2co5U_eF]--></g></svg>