<svg xmlns="http://www.w3.org/2000/svg" xmlns:xlink="http://www.w3.org/1999/xlink" contentStyleType="text/css" data-diagram-type="DESCRIPTION" height="511px" preserveAspectRatio="none" style="width:2289px;height:511px;background:#FFFFFF;" version="1.1" viewBox="0 0 2289 511" width="2289px" zoomAndPan="magnify"><defs/><g><!--cluster DAFO - Divisi?n Borygo--><g id="cluster_DAFO - Divisi&#243;n Borygo"><rect fill="#FFFFFF" fill-opacity="0.00000" height="498.19" rx="2.5" ry="2.5" style="stroke:#181818;stroke-width:1;" width="2276" x="7" y="7"/><text fill="#000000" font-family="sans-serif" font-size="14" font-weight="bold" lengthAdjust="spacing" textLength="183.374" x="1053.313" y="21.9951">DAFO - Divisi&#243;n Borygo</text></g><!--cluster Fortalezas--><g id="cluster_Fortalezas"><path d="M47.5,50 L130.9482,50 A3.75,3.75 0 0 1 133.4482,52.5 L140.4482,72.2969 L1063.5,72.2969 A2.5,2.5 0 0 1 1066,74.7969 L1066,251.1 A2.5,2.5 0 0 1 1063.5,253.6 L47.5,253.6 A2.5,2.5 0 0 1 45,251.1 L45,52.5 A2.5,2.5 0 0 1 47.5,50 " fill="#FFFFFF" fill-opacity="0.00000" style="stroke:#000000;stroke-width:1.5;"/><line style="stroke:#000000;stroke-width:1.5;" x1="45" x2="140.4482" y1="72.2969" y2="72.2969"/><text fill="#000000" font-family="sans-serif" font-size="14" font-weight="bold" lengthAdjust="spacing" textLength="82.4482" x="49" y="64.9951">Fortalezas</text></g><!--cluster Debilidades--><g id="cluster_Debilidades"><path d="M1092.5,50 L1186.3525,50 A3.75,3.75 0 0 1 1188.8525,52.5 L1195.8525,72.2969 L2256.5,72.2969 A2.5,2.5 0 0 1 2259,74.7969 L2259,251.1 A2.5,2.5 0 0 1 2256.5,253.6 L1092.5,253.6 A2.5,2.5 0 0 1 1090,251.1 L1090,52.5 A2.5,2.5 0 0 1 1092.5,50 " fill="#FFFFFF" fill-opacity="0.00000" style="stroke:#000000;stroke-width:1.5;"/><line style="stroke:#000000;stroke-width:1.5;" x1="1090" x2="1195.8525" y1="72.2969" y2="72.2969"/><text fill="#000000" font-family="sans-serif" font-size="14" font-weight="bold" lengthAdjust="spacing" textLength="92.8525" x="1094" y="64.9951">Debilidades</text></g><!--cluster Oportunidades--><g id="cluster_Oportunidades"><path d="M33.5,277.6 L151.6885,277.6 A3.75,3.75 0 0 1 154.1885,280.1 L161.1885,299.8969 L1125.5,299.8969 A2.5,2.5 0 0 1 1128,302.3969 L1128,478.69 A2.5,2.5 0 0 1 1125.5,481.19 L33.5,481.19 A2.5,2.5 0 0 1 31,478.69 L31,280.1 A2.5,2.5 0 0 1 33.5,277.6 " fill="#FFFFFF" fill-opacity="0.00000" style="stroke:#000000;stroke-width:1.5;"/><line style="stroke:#000000;stroke-width:1.5;" x1="31" x2="161.1885" y1="299.8969" y2="299.8969"/><text fill="#000000" font-family="sans-serif" font-size="14" font-weight="bold" lengthAdjust="spacing" textLength="117.1885" x="35" y="292.5951">Oportunidades</text></g><!--cluster Amenazas--><g id="cluster_Amenazas"><path d="M1154.5,277.6 L1235.7607,277.6 A3.75,3.75 0 0 1 1238.2607,280.1 L1245.2607,299.8969 L2256.5,299.8969 A2.5,2.5 0 0 1 2259,302.3969 L2259,478.69 A2.5,2.5 0 0 1 2256.5,481.19 L1154.5,481.19 A2.5,2.5 0 0 1 1152,478.69 L1152,280.1 A2.5,2.5 0 0 1 1154.5,277.6 " fill="#FFFFFF" fill-opacity="0.00000" style="stroke:#000000;stroke-width:1.5;"/><line style="stroke:#000000;stroke-width:1.5;" x1="1152" x2="1245.2607" y1="299.8969" y2="299.8969"/><text fill="#000000" font-family="sans-serif" font-size="14" font-weight="bold" lengthAdjust="spacing" textLength="80.2607" x="1156" y="292.5951">Amenazas</text></g><!--entity Amplia gama de productos en l?quidos refrigerantes y detailing--><g id="elem_Amplia gama de productos en l&#237;quidos refrigerantes y detailing"><rect fill="#F1F1F1" height="46.2969" rx="2.5" ry="2.5" style="stroke:#181818;stroke-width:0.5;" width="483.249" x="61.38" y="85"/><rect fill="#F1F1F1" height="10" style="stroke:#181818;stroke-width:0.5;" width="15" x="524.629" y="90"/><rect fill="#F1F1F1" height="2" style="stroke:#181818;stroke-width:0.5;" width="4" x="522.629" y="92"/><rect fill="#F1F1F1" height="2" style="stroke:#181818;stroke-width:0.5;" width="4" x="522.629" y="96"/><text fill="#000000" font-family="sans-serif" font-size="14" lengthAdjust="spacing" textLength="443.249" x="76.38" y="117.9951">Amplia gama de productos en l&#237;quidos refrigerantes y detailing</text></g><!--entity Control de calidad qu?mico, lo que garantiza est?ndares altos--><g id="elem_Control de calidad qu&#237;mico, lo que garantiza est&#225;ndares altos"><rect fill="#F1F1F1" height="46.2969" rx="2.5" ry="2.5" style="stroke:#181818;stroke-width:0.5;" width="470.917" x="579.54" y="85"/><rect fill="#F1F1F1" height="10" style="stroke:#181818;stroke-width:0.5;" width="15" x="1030.457" y="90"/><rect fill="#F1F1F1" height="2" style="stroke:#181818;stroke-width:0.5;" width="4" x="1028.457" y="92"/><rect fill="#F1F1F1" height="2" style="stroke:#181818;stroke-width:0.5;" width="4" x="1028.457" y="96"/><text fill="#000000" font-family="sans-serif" font-size="14" lengthAdjust="spacing" textLength="430.917" x="594.54" y="117.9951">Control de calidad qu&#237;mico, lo que garantiza est&#225;ndares altos</text></g><!--entity  Experiencia en formulaci?n y envasado qu?mico--><g id="elem_ Experiencia en formulaci&#243;n y envasado qu&#237;mico"><rect fill="#F1F1F1" height="46.2969" rx="2.5" ry="2.5" style="stroke:#181818;stroke-width:0.5;" width="380.7715" x="117.61" y="191.3"/><rect fill="#F1F1F1" height="10" style="stroke:#181818;stroke-width:0.5;" width="15" x="478.3815" y="196.3"/><rect fill="#F1F1F1" height="2" style="stroke:#181818;stroke-width:0.5;" width="4" x="476.3815" y="198.3"/><rect fill="#F1F1F1" height="2" style="stroke:#181818;stroke-width:0.5;" width="4" x="476.3815" y="202.3"/><text fill="#000000" font-family="sans-serif" font-size="14" lengthAdjust="spacing" textLength="336.3213" x="137.0602" y="224.2951">Experiencia en formulaci&#243;n y envasado qu&#237;mico</text></g><!--entity Dependencia de insumos qu?micos sujetos a variaciones de precios--><g id="elem_Dependencia de insumos qu&#237;micos sujetos a variaciones de precios"><rect fill="#F1F1F1" height="46.2969" rx="2.5" ry="2.5" style="stroke:#181818;stroke-width:0.5;" width="513.3887" x="1106.31" y="85"/><rect fill="#F1F1F1" height="10" style="stroke:#181818;stroke-width:0.5;" width="15" x="1599.6987" y="90"/><rect fill="#F1F1F1" height="2" style="stroke:#181818;stroke-width:0.5;" width="4" x="1597.6987" y="92"/><rect fill="#F1F1F1" height="2" style="stroke:#181818;stroke-width:0.5;" width="4" x="1597.6987" y="96"/><text fill="#000000" font-family="sans-serif" font-size="14" lengthAdjust="spacing" textLength="473.3887" x="1121.31" y="117.9951">Dependencia de insumos qu&#237;micos sujetos a variaciones de precios</text></g><!--entity Necesidad de innovaci?n constante para mantenerse competitivo en el sector--><g id="elem_Necesidad de innovaci&#243;n constante para mantenerse competitivo en el sector"><rect fill="#F1F1F1" height="46.2969" rx="2.5" ry="2.5" style="stroke:#181818;stroke-width:0.5;" width="588.6045" x="1654.7" y="85"/><rect fill="#F1F1F1" height="10" style="stroke:#181818;stroke-width:0.5;" width="15" x="2223.3045" y="90"/><rect fill="#F1F1F1" height="2" style="stroke:#181818;stroke-width:0.5;" width="4" x="2221.3045" y="92"/><rect fill="#F1F1F1" height="2" style="stroke:#181818;stroke-width:0.5;" width="4" x="2221.3045" y="96"/><text fill="#000000" font-family="sans-serif" font-size="14" lengthAdjust="spacing" textLength="548.6045" x="1669.7" y="117.9951">Necesidad de innovaci&#243;n constante para mantenerse competitivo en el sector</text></g><!--entity Regulaciones qu?micas estrictas que pueden limitar ciertos productos--><g id="elem_Regulaciones qu&#237;micas estrictas que pueden limitar ciertos productos"><rect fill="#F1F1F1" height="46.2969" rx="2.5" ry="2.5" style="stroke:#181818;stroke-width:0.5;" width="529.0703" x="1106.46" y="191.3"/><rect fill="#F1F1F1" height="10" style="stroke:#181818;stroke-width:0.5;" width="15" x="1615.5303" y="196.3"/><rect fill="#F1F1F1" height="2" style="stroke:#181818;stroke-width:0.5;" width="4" x="1613.5303" y="198.3"/><rect fill="#F1F1F1" height="2" style="stroke:#181818;stroke-width:0.5;" width="4" x="1613.5303" y="202.3"/><text fill="#000000" font-family="sans-serif" font-size="14" lengthAdjust="spacing" textLength="489.0703" x="1121.46" y="224.2951">Regulaciones qu&#237;micas estrictas que pueden limitar ciertos productos</text></g><!--entity Crecimiento en la demanda de productos ecol?gicos y biodegradables--><g id="elem_Crecimiento en la demanda de productos ecol&#243;gicos y biodegradables"><rect fill="#F1F1F1" height="46.2969" rx="2.5" ry="2.5" style="stroke:#181818;stroke-width:0.5;" width="534.0879" x="46.96" y="312.6"/><rect fill="#F1F1F1" height="10" style="stroke:#181818;stroke-width:0.5;" width="15" x="561.0479" y="317.6"/><rect fill="#F1F1F1" height="2" style="stroke:#181818;stroke-width:0.5;" width="4" x="559.0479" y="319.6"/><rect fill="#F1F1F1" height="2" style="stroke:#181818;stroke-width:0.5;" width="4" x="559.0479" y="323.6"/><text fill="#000000" font-family="sans-serif" font-size="14" lengthAdjust="spacing" textLength="494.0879" x="61.96" y="345.5951">Crecimiento en la demanda de productos ecol&#243;gicos y biodegradables</text></g><!--entity Expansi?n a mercados de mantenimiento de veh?culos el?ctricos--><g id="elem_Expansi&#243;n a mercados de mantenimiento de veh&#237;culos el&#233;ctricos"><rect fill="#F1F1F1" height="46.2969" rx="2.5" ry="2.5" style="stroke:#181818;stroke-width:0.5;" width="496.3604" x="615.82" y="312.6"/><rect fill="#F1F1F1" height="10" style="stroke:#181818;stroke-width:0.5;" width="15" x="1092.1804" y="317.6"/><rect fill="#F1F1F1" height="2" style="stroke:#181818;stroke-width:0.5;" width="4" x="1090.1804" y="319.6"/><rect fill="#F1F1F1" height="2" style="stroke:#181818;stroke-width:0.5;" width="4" x="1090.1804" y="323.6"/><text fill="#000000" font-family="sans-serif" font-size="14" lengthAdjust="spacing" textLength="456.3604" x="630.82" y="345.5951">Expansi&#243;n a mercados de mantenimiento de veh&#237;culos el&#233;ctricos</text></g><!--entity Posibilidad de alianzas con grandes distribuidores y tiendas retail--><g id="elem_Posibilidad de alianzas con grandes distribuidores y tiendas retail"><rect fill="#F1F1F1" height="46.2969" rx="2.5" ry="2.5" style="stroke:#181818;stroke-width:0.5;" width="499.3545" x="64.32" y="418.89"/><rect fill="#F1F1F1" height="10" style="stroke:#181818;stroke-width:0.5;" width="15" x="543.6745" y="423.89"/><rect fill="#F1F1F1" height="2" style="stroke:#181818;stroke-width:0.5;" width="4" x="541.6745" y="425.89"/><rect fill="#F1F1F1" height="2" style="stroke:#181818;stroke-width:0.5;" width="4" x="541.6745" y="429.89"/><text fill="#000000" font-family="sans-serif" font-size="14" lengthAdjust="spacing" textLength="459.3545" x="79.32" y="451.8851">Posibilidad de alianzas con grandes distribuidores y tiendas retail</text></g><!--entity  Competencia con grandes marcas establecidas en refrigerantes y detailing --><g id="elem_ Competencia con grandes marcas establecidas en refrigerantes y detailing "><rect fill="#F1F1F1" height="46.2969" rx="2.5" ry="2.5" style="stroke:#181818;stroke-width:0.5;" width="576.2178" x="1167.89" y="312.6"/><rect fill="#F1F1F1" height="10" style="stroke:#181818;stroke-width:0.5;" width="15" x="1724.1078" y="317.6"/><rect fill="#F1F1F1" height="2" style="stroke:#181818;stroke-width:0.5;" width="4" x="1722.1078" y="319.6"/><rect fill="#F1F1F1" height="2" style="stroke:#181818;stroke-width:0.5;" width="4" x="1722.1078" y="323.6"/><text fill="#000000" font-family="sans-serif" font-size="14" lengthAdjust="spacing" textLength="527.3174" x="1187.3402" y="345.5951">Competencia con grandes marcas establecidas en refrigerantes y detailing</text></g><!--entity  Fluctuaciones en el precio de las materias primas qu?micas --><g id="elem_ Fluctuaciones en el precio de las materias primas qu&#237;micas "><rect fill="#F1F1F1" height="46.2969" rx="2.5" ry="2.5" style="stroke:#181818;stroke-width:0.5;" width="464.1768" x="1778.91" y="312.6"/><rect fill="#F1F1F1" height="10" style="stroke:#181818;stroke-width:0.5;" width="15" x="2223.0868" y="317.6"/><rect fill="#F1F1F1" height="2" style="stroke:#181818;stroke-width:0.5;" width="4" x="2221.0868" y="319.6"/><rect fill="#F1F1F1" height="2" style="stroke:#181818;stroke-width:0.5;" width="4" x="2221.0868" y="323.6"/><text fill="#000000" font-family="sans-serif" font-size="14" lengthAdjust="spacing" textLength="415.2764" x="1798.3602" y="345.5951">Fluctuaciones en el precio de las materias primas qu&#237;micas</text></g><!--entity  Posibles restricciones medioambientales que afecten ciertos productos--><g id="elem_ Posibles restricciones medioambientales que afecten ciertos productos"><rect fill="#F1F1F1" height="46.2969" rx="2.5" ry="2.5" style="stroke:#181818;stroke-width:0.5;" width="543.877" x="1184.06" y="418.89"/><rect fill="#F1F1F1" height="10" style="stroke:#181818;stroke-width:0.5;" width="15" x="1707.937" y="423.89"/><rect fill="#F1F1F1" height="2" style="stroke:#181818;stroke-width:0.5;" width="4" x="1705.937" y="425.89"/><rect fill="#F1F1F1" height="2" style="stroke:#181818;stroke-width:0.5;" width="4" x="1705.937" y="429.89"/><text fill="#000000" font-family="sans-serif" font-size="14" lengthAdjust="spacing" textLength="499.4268" x="1203.5102" y="451.8851">Posibles restricciones medioambientales que afecten ciertos productos</text></g><!--SRC=[TLExSjim4Epp5JUkauzGfAYCCsapBax0YRa43_e0SYnx_34fKwZo9_37SWTACks9M7084jpTsrq8kOgf2mGtczNs5Zx1XaSkFBqa-9pbqEKRUFe0UlNeVcEd-xPPAWPwn7B-PDUFLUm38tGO4Jn1BzaFhkO2b21Cn_k1lIw4zi8T2QPA1Gwwio87JjtTAz8wfoev68h3m1uzt0_JCRBB7o5aNP3I60G_8b2fqv_aKHGFWn8kaE3BGq_2b9mgKntxB748wDfu1tqpOa6VB_3ph-ts_FfucNn3EsvwwEte6-ef-Pb5HNCgGzHPpwW5ol2Bp0g44OMLFoTLsrmYNImbVoL7fStSa58UJt9TJgMQRQf74A8z9fAY9kNOK-NAOxOXAK3HLBCiKBzJr-Pkl2TTMCmxOIr0QPxs0taBYoDN571COg8lITvTDUQsrquCwJ_Mh6t0g0dKfYsOGIhTl- -8os5wwPfP1zXnzjG9Ujm5MfgZSMAQowaEa3YqJYdIxCQPI5-Cz7CwkY4OTfZ-EflpZS_VSk5JchPVUuP9AsqsWr9hd0hCvi_EcYkjhLNnFLgBhRNN_LX5IlZ-WC2wvJJNP4aJKKvXsBoEZK6zkdfKODdmRL07XtEqS_npgsoiW0PVzGoW1SaHb_4lSPeVwhRIjbAS02DvpXXtPYm6cek2U-sNKbrjoFC_]--></g></svg>